<?xml version="1.0" standalone="no"?>
<!DOCTYPE svg PUBLIC "-//W3C//DTD SVG 20010904//EN"
 "http://www.w3.org/TR/2001/REC-SVG-20010904/DTD/svg10.dtd">
<svg version="1.0" xmlns="http://www.w3.org/2000/svg"
 width="152.000000pt" height="152.000000pt" viewBox="0 0 152.000000 152.000000"
 preserveAspectRatio="xMidYMid meet">
<metadata>
Created by potrace 1.11, written by Peter Selinger 2001-2013
</metadata>
<g transform="translate(0.000000,152.000000) scale(0.100000,-0.100000)"
fill="#000000" stroke="none">
<path d="M650 1513 c-193 -31 -348 -98 -455 -195 -67 -61 -95 -116 -102 -198
-5 -61 -3 -75 21 -122 29 -59 87 -109 156 -133 94 -33 208 -12 425 78 137 57
191 71 257 65 63 -7 88 -32 88 -90 0 -99 -84 -162 -172 -129 -34 13 -68 -4
-68 -33 0 -31 42 -59 78 -52 15 2 44 7 65 11 56 9 113 65 132 128 19 66 19
117 -1 146 -21 29 -109 71 -149 71 -55 0 -145 -29 -258 -84 -127 -61 -161 -72
-267 -81 -70 -6 -78 -5 -130 23 -162 87 -160 258 4 390 59 48 202 72 422 72
229 0 307 -27 433 -152 106 -105 130 -186 95 -321 -23 -89 -55 -145 -120 -210
-79 -79 -183 -130 -273 -135 -36 -1 -72 1 -80 7 -11 7 -15 46 -19 160 -5 172
-9 181 -70 163 -20 -6 -56 -25 -80 -43 l-42 -31 0 -352 0 -353 -24 -26 c-15
-16 -42 -29 -80 -37 -41 -8 -56 -16 -56 -28 0 -16 26 -17 295 -17 257 0 295 1
293 15 -5 24 -49 40 -111 40 -51 0 -62 4 -88 29 l-29 29 0 190 0 189 73 6
c131 10 335 104 440 202 111 104 167 225 167 359 0 122 -36 204 -127 292 -63
61 -207 131 -308 149 -73 13 -275 18 -335 8z"/>
<path d="M633 1216 c-152 -102 -203 -156 -133 -143 36 8 50 -12 50 -69 0 -36
1 -36 33 -31 17 3 57 20 88 38 l56 34 6 105 c3 58 2 110 -1 117 -5 8 -38 -9
-99 -51z"/>
</g>
</svg>
